<mxfile host="Electron" modified="2023-04-22T04:04:54.494Z" agent="Mozilla/5.0 (Windows NT 10.0; Win64; x64) AppleWebKit/537.36 (KHTML, like Gecko) draw.io/21.1.2 Chrome/106.0.5249.199 Electron/21.4.3 Safari/537.36" etag="EV8HiKUgbyIcexcOqcbn" version="21.1.2" type="device">
  <diagram id="C5RBs43oDa-KdzZeNtuy" name="Page-1">
    <mxGraphModel dx="780" dy="542" grid="1" gridSize="10" guides="1" tooltips="1" connect="1" arrows="1" fold="1" page="1" pageScale="1" pageWidth="1169" pageHeight="827" math="0" shadow="0">
      <root>
        <mxCell id="WIyWlLk6GJQsqaUBKTNV-0" />
        <mxCell id="WIyWlLk6GJQsqaUBKTNV-1" parent="WIyWlLk6GJQsqaUBKTNV-0" />
        <mxCell id="7DWJV_5hHM2rC3RFC7kP-4" value="ADMS" style="swimlane;fontStyle=1;align=center;verticalAlign=top;childLayout=stackLayout;horizontal=1;startSize=26;horizontalStack=0;resizeParent=1;resizeParentMax=0;resizeLast=0;collapsible=1;marginBottom=0;whiteSpace=wrap;html=1;" vertex="1" parent="WIyWlLk6GJQsqaUBKTNV-1">
          <mxGeometry x="520" y="78" width="160" height="34" as="geometry" />
        </mxCell>
        <mxCell id="7DWJV_5hHM2rC3RFC7kP-6" value="" style="line;strokeWidth=1;fillColor=none;align=left;verticalAlign=middle;spacingTop=-1;spacingLeft=3;spacingRight=3;rotatable=0;labelPosition=right;points=[];portConstraint=eastwest;strokeColor=inherit;" vertex="1" parent="7DWJV_5hHM2rC3RFC7kP-4">
          <mxGeometry y="26" width="160" height="8" as="geometry" />
        </mxCell>
        <mxCell id="7DWJV_5hHM2rC3RFC7kP-9" value="User" style="swimlane;fontStyle=1;align=center;verticalAlign=top;childLayout=stackLayout;horizontal=1;startSize=26;horizontalStack=0;resizeParent=1;resizeParentMax=0;resizeLast=0;collapsible=1;marginBottom=0;whiteSpace=wrap;html=1;" vertex="1" parent="WIyWlLk6GJQsqaUBKTNV-1">
          <mxGeometry x="360" y="218" width="160" height="230" as="geometry" />
        </mxCell>
        <mxCell id="7DWJV_5hHM2rC3RFC7kP-10" value="- Id: int&lt;br&gt;- Name: string&lt;br&gt;- Phone: Ssring&lt;br&gt;- Email: string&lt;br style=&quot;border-color: var(--border-color);&quot;&gt;- User: string&lt;br style=&quot;border-color: var(--border-color);&quot;&gt;- Password: string" style="text;strokeColor=none;fillColor=none;align=left;verticalAlign=bottom;spacingLeft=4;spacingRight=4;overflow=hidden;rotatable=0;points=[[0,0.5],[1,0.5]];portConstraint=eastwest;whiteSpace=wrap;html=1;" vertex="1" parent="7DWJV_5hHM2rC3RFC7kP-9">
          <mxGeometry y="26" width="160" height="94" as="geometry" />
        </mxCell>
        <mxCell id="7DWJV_5hHM2rC3RFC7kP-11" value="" style="line;strokeWidth=1;fillColor=none;align=left;verticalAlign=middle;spacingTop=-1;spacingLeft=3;spacingRight=3;rotatable=0;labelPosition=right;points=[];portConstraint=eastwest;strokeColor=inherit;" vertex="1" parent="7DWJV_5hHM2rC3RFC7kP-9">
          <mxGeometry y="120" width="160" height="8" as="geometry" />
        </mxCell>
        <mxCell id="7DWJV_5hHM2rC3RFC7kP-12" value="+ Login()&lt;br style=&quot;border-color: var(--border-color);&quot;&gt;+ FogrotPassword()&lt;br style=&quot;border-color: var(--border-color);&quot;&gt;+ Logout()&lt;br&gt;+ CheckAccount()&lt;br&gt;" style="text;strokeColor=none;fillColor=none;align=left;verticalAlign=top;spacingLeft=4;spacingRight=4;overflow=hidden;rotatable=0;points=[[0,0.5],[1,0.5]];portConstraint=eastwest;whiteSpace=wrap;html=1;" vertex="1" parent="7DWJV_5hHM2rC3RFC7kP-9">
          <mxGeometry y="128" width="160" height="102" as="geometry" />
        </mxCell>
        <mxCell id="7DWJV_5hHM2rC3RFC7kP-22" value="Editor" style="swimlane;fontStyle=1;align=center;verticalAlign=top;childLayout=stackLayout;horizontal=1;startSize=26;horizontalStack=0;resizeParent=1;resizeParentMax=0;resizeLast=0;collapsible=1;marginBottom=0;whiteSpace=wrap;html=1;" vertex="1" parent="WIyWlLk6GJQsqaUBKTNV-1">
          <mxGeometry x="240" y="537" width="160" height="140" as="geometry" />
        </mxCell>
        <mxCell id="7DWJV_5hHM2rC3RFC7kP-23" value="- UserType: string" style="text;strokeColor=none;fillColor=none;align=left;verticalAlign=top;spacingLeft=4;spacingRight=4;overflow=hidden;rotatable=0;points=[[0,0.5],[1,0.5]];portConstraint=eastwest;whiteSpace=wrap;html=1;" vertex="1" parent="7DWJV_5hHM2rC3RFC7kP-22">
          <mxGeometry y="26" width="160" height="26" as="geometry" />
        </mxCell>
        <mxCell id="7DWJV_5hHM2rC3RFC7kP-24" value="" style="line;strokeWidth=1;fillColor=none;align=left;verticalAlign=middle;spacingTop=-1;spacingLeft=3;spacingRight=3;rotatable=0;labelPosition=right;points=[];portConstraint=eastwest;strokeColor=inherit;" vertex="1" parent="7DWJV_5hHM2rC3RFC7kP-22">
          <mxGeometry y="52" width="160" height="8" as="geometry" />
        </mxCell>
        <mxCell id="7DWJV_5hHM2rC3RFC7kP-25" value="+ UploadDocument()&lt;br style=&quot;border-color: var(--border-color);&quot;&gt;+ ViewDocument()&lt;br style=&quot;border-color: var(--border-color);&quot;&gt;+ DownloadDocument()&lt;br style=&quot;border-color: var(--border-color);&quot;&gt;+ EditDocument()&lt;br style=&quot;border-color: var(--border-color);&quot;&gt;+ NotifyDocument()" style="text;strokeColor=none;fillColor=none;align=left;verticalAlign=top;spacingLeft=4;spacingRight=4;overflow=hidden;rotatable=0;points=[[0,0.5],[1,0.5]];portConstraint=eastwest;whiteSpace=wrap;html=1;" vertex="1" parent="7DWJV_5hHM2rC3RFC7kP-22">
          <mxGeometry y="60" width="160" height="80" as="geometry" />
        </mxCell>
        <mxCell id="7DWJV_5hHM2rC3RFC7kP-27" value="Admin" style="swimlane;fontStyle=1;align=center;verticalAlign=top;childLayout=stackLayout;horizontal=1;startSize=26;horizontalStack=0;resizeParent=1;resizeParentMax=0;resizeLast=0;collapsible=1;marginBottom=0;whiteSpace=wrap;html=1;" vertex="1" parent="WIyWlLk6GJQsqaUBKTNV-1">
          <mxGeometry x="480" y="537" width="160" height="140" as="geometry" />
        </mxCell>
        <mxCell id="7DWJV_5hHM2rC3RFC7kP-28" value="- UserType: string" style="text;strokeColor=none;fillColor=none;align=left;verticalAlign=top;spacingLeft=4;spacingRight=4;overflow=hidden;rotatable=0;points=[[0,0.5],[1,0.5]];portConstraint=eastwest;whiteSpace=wrap;html=1;" vertex="1" parent="7DWJV_5hHM2rC3RFC7kP-27">
          <mxGeometry y="26" width="160" height="26" as="geometry" />
        </mxCell>
        <mxCell id="7DWJV_5hHM2rC3RFC7kP-29" value="" style="line;strokeWidth=1;fillColor=none;align=left;verticalAlign=middle;spacingTop=-1;spacingLeft=3;spacingRight=3;rotatable=0;labelPosition=right;points=[];portConstraint=eastwest;strokeColor=inherit;" vertex="1" parent="7DWJV_5hHM2rC3RFC7kP-27">
          <mxGeometry y="52" width="160" height="8" as="geometry" />
        </mxCell>
        <mxCell id="7DWJV_5hHM2rC3RFC7kP-30" value="+ CreateAccount()&lt;br&gt;+ CheckProfile()&lt;br&gt;+ ResetPasswordAllUser()" style="text;strokeColor=none;fillColor=none;align=left;verticalAlign=top;spacingLeft=4;spacingRight=4;overflow=hidden;rotatable=0;points=[[0,0.5],[1,0.5]];portConstraint=eastwest;whiteSpace=wrap;html=1;" vertex="1" parent="7DWJV_5hHM2rC3RFC7kP-27">
          <mxGeometry y="60" width="160" height="80" as="geometry" />
        </mxCell>
        <mxCell id="7DWJV_5hHM2rC3RFC7kP-31" value="Document" style="swimlane;fontStyle=1;align=center;verticalAlign=top;childLayout=stackLayout;horizontal=1;startSize=26;horizontalStack=0;resizeParent=1;resizeParentMax=0;resizeLast=0;collapsible=1;marginBottom=0;whiteSpace=wrap;html=1;" vertex="1" parent="WIyWlLk6GJQsqaUBKTNV-1">
          <mxGeometry x="680" y="218" width="160" height="250" as="geometry" />
        </mxCell>
        <mxCell id="7DWJV_5hHM2rC3RFC7kP-32" value="- Id: int&lt;br&gt;- Name: string&lt;br&gt;- Type: string&lt;br&gt;- UnitOfReleasing: string&lt;br&gt;- Date: date&lt;br&gt;- Term: string&lt;br&gt;- Number: int&lt;br&gt;- Note: string&lt;br&gt;- File: file" style="text;strokeColor=none;fillColor=none;align=left;verticalAlign=bottom;spacingLeft=4;spacingRight=4;overflow=hidden;rotatable=0;points=[[0,0.5],[1,0.5]];portConstraint=eastwest;whiteSpace=wrap;html=1;" vertex="1" parent="7DWJV_5hHM2rC3RFC7kP-31">
          <mxGeometry y="26" width="160" height="134" as="geometry" />
        </mxCell>
        <mxCell id="7DWJV_5hHM2rC3RFC7kP-33" value="" style="line;strokeWidth=1;fillColor=none;align=left;verticalAlign=middle;spacingTop=-1;spacingLeft=3;spacingRight=3;rotatable=0;labelPosition=right;points=[];portConstraint=eastwest;strokeColor=inherit;" vertex="1" parent="7DWJV_5hHM2rC3RFC7kP-31">
          <mxGeometry y="160" width="160" height="8" as="geometry" />
        </mxCell>
        <mxCell id="7DWJV_5hHM2rC3RFC7kP-34" value="+ Add()&lt;br&gt;+ GetInformation()&lt;br&gt;+ Delete()&lt;br&gt;+ ShowPartly()&lt;br&gt;+ ShowDetailedly()" style="text;strokeColor=none;fillColor=none;align=left;verticalAlign=top;spacingLeft=4;spacingRight=4;overflow=hidden;rotatable=0;points=[[0,0.5],[1,0.5]];portConstraint=eastwest;whiteSpace=wrap;html=1;" vertex="1" parent="7DWJV_5hHM2rC3RFC7kP-31">
          <mxGeometry y="168" width="160" height="82" as="geometry" />
        </mxCell>
        <mxCell id="7DWJV_5hHM2rC3RFC7kP-39" value="" style="endArrow=diamondThin;endFill=0;endSize=24;html=1;rounded=0;entryX=0.5;entryY=1;entryDx=0;entryDy=0;exitX=0.5;exitY=0;exitDx=0;exitDy=0;" edge="1" parent="WIyWlLk6GJQsqaUBKTNV-1" source="7DWJV_5hHM2rC3RFC7kP-9" target="7DWJV_5hHM2rC3RFC7kP-4">
          <mxGeometry width="160" relative="1" as="geometry">
            <mxPoint x="580" y="188" as="sourcePoint" />
            <mxPoint x="610" y="338" as="targetPoint" />
          </mxGeometry>
        </mxCell>
        <mxCell id="7DWJV_5hHM2rC3RFC7kP-40" value="" style="endArrow=diamondThin;endFill=0;endSize=24;html=1;rounded=0;entryX=0.5;entryY=1;entryDx=0;entryDy=0;exitX=0.5;exitY=0;exitDx=0;exitDy=0;" edge="1" parent="WIyWlLk6GJQsqaUBKTNV-1" source="7DWJV_5hHM2rC3RFC7kP-31" target="7DWJV_5hHM2rC3RFC7kP-4">
          <mxGeometry width="160" relative="1" as="geometry">
            <mxPoint x="800" y="138" as="sourcePoint" />
            <mxPoint x="610" y="248" as="targetPoint" />
          </mxGeometry>
        </mxCell>
        <mxCell id="7DWJV_5hHM2rC3RFC7kP-41" value="*" style="text;align=center;fontStyle=1;verticalAlign=middle;spacingLeft=3;spacingRight=3;strokeColor=none;rotatable=0;points=[[0,0.5],[1,0.5]];portConstraint=eastwest;html=1;" vertex="1" parent="WIyWlLk6GJQsqaUBKTNV-1">
          <mxGeometry x="400" y="192" width="80" height="26" as="geometry" />
        </mxCell>
        <mxCell id="7DWJV_5hHM2rC3RFC7kP-42" value="*" style="text;align=center;fontStyle=1;verticalAlign=middle;spacingLeft=3;spacingRight=3;strokeColor=none;rotatable=0;points=[[0,0.5],[1,0.5]];portConstraint=eastwest;html=1;" vertex="1" parent="WIyWlLk6GJQsqaUBKTNV-1">
          <mxGeometry x="720" y="192" width="80" height="26" as="geometry" />
        </mxCell>
        <mxCell id="7DWJV_5hHM2rC3RFC7kP-43" value="1" style="text;align=center;fontStyle=1;verticalAlign=middle;spacingLeft=3;spacingRight=3;strokeColor=none;rotatable=0;points=[[0,0.5],[1,0.5]];portConstraint=eastwest;html=1;" vertex="1" parent="WIyWlLk6GJQsqaUBKTNV-1">
          <mxGeometry x="520" y="112" width="80" height="26" as="geometry" />
        </mxCell>
        <mxCell id="7DWJV_5hHM2rC3RFC7kP-45" value="1" style="text;align=center;fontStyle=1;verticalAlign=middle;spacingLeft=3;spacingRight=3;strokeColor=none;rotatable=0;points=[[0,0.5],[1,0.5]];portConstraint=eastwest;html=1;" vertex="1" parent="WIyWlLk6GJQsqaUBKTNV-1">
          <mxGeometry x="600" y="112" width="80" height="26" as="geometry" />
        </mxCell>
        <mxCell id="7DWJV_5hHM2rC3RFC7kP-46" value="" style="line;strokeWidth=1;fillColor=none;align=left;verticalAlign=middle;spacingTop=-1;spacingLeft=3;spacingRight=3;rotatable=0;labelPosition=right;points=[];portConstraint=eastwest;strokeColor=inherit;" vertex="1" parent="WIyWlLk6GJQsqaUBKTNV-1">
          <mxGeometry x="320" y="493" width="240" height="8" as="geometry" />
        </mxCell>
        <mxCell id="7DWJV_5hHM2rC3RFC7kP-48" value="" style="endArrow=none;html=1;rounded=0;exitX=0.5;exitY=0;exitDx=0;exitDy=0;" edge="1" parent="WIyWlLk6GJQsqaUBKTNV-1" source="7DWJV_5hHM2rC3RFC7kP-22">
          <mxGeometry width="50" height="50" relative="1" as="geometry">
            <mxPoint x="500" y="528" as="sourcePoint" />
            <mxPoint x="320" y="497" as="targetPoint" />
          </mxGeometry>
        </mxCell>
        <mxCell id="7DWJV_5hHM2rC3RFC7kP-49" value="" style="endArrow=none;html=1;rounded=0;exitX=0.5;exitY=0;exitDx=0;exitDy=0;" edge="1" parent="WIyWlLk6GJQsqaUBKTNV-1">
          <mxGeometry width="50" height="50" relative="1" as="geometry">
            <mxPoint x="559.55" y="538" as="sourcePoint" />
            <mxPoint x="559.55" y="498" as="targetPoint" />
          </mxGeometry>
        </mxCell>
        <mxCell id="7DWJV_5hHM2rC3RFC7kP-50" value="" style="endArrow=block;html=1;rounded=0;endFill=0;" edge="1" parent="WIyWlLk6GJQsqaUBKTNV-1">
          <mxGeometry width="50" height="50" relative="1" as="geometry">
            <mxPoint x="439" y="497" as="sourcePoint" />
            <mxPoint x="439" y="446.9999999999999" as="targetPoint" />
          </mxGeometry>
        </mxCell>
        <mxCell id="7DWJV_5hHM2rC3RFC7kP-51" value="" style="endArrow=none;html=1;rounded=0;" edge="1" parent="WIyWlLk6GJQsqaUBKTNV-1">
          <mxGeometry width="50" height="50" relative="1" as="geometry">
            <mxPoint x="520" y="290" as="sourcePoint" />
            <mxPoint x="680" y="290" as="targetPoint" />
          </mxGeometry>
        </mxCell>
        <mxCell id="7DWJV_5hHM2rC3RFC7kP-52" value="1" style="text;align=center;fontStyle=1;verticalAlign=middle;spacingLeft=3;spacingRight=3;strokeColor=none;rotatable=0;points=[[0,0.5],[1,0.5]];portConstraint=eastwest;html=1;" vertex="1" parent="WIyWlLk6GJQsqaUBKTNV-1">
          <mxGeometry x="490" y="268" width="80" height="26" as="geometry" />
        </mxCell>
        <mxCell id="7DWJV_5hHM2rC3RFC7kP-53" value="*" style="text;align=center;fontStyle=1;verticalAlign=middle;spacingLeft=3;spacingRight=3;strokeColor=none;rotatable=0;points=[[0,0.5],[1,0.5]];portConstraint=eastwest;html=1;" vertex="1" parent="WIyWlLk6GJQsqaUBKTNV-1">
          <mxGeometry x="628" y="268" width="80" height="26" as="geometry" />
        </mxCell>
      </root>
    </mxGraphModel>
  </diagram>
</mxfile>
